<?xml version="1.0" encoding="UTF-8" standalone="no"?>
<!DOCTYPE svg PUBLIC "-//W3C//DTD SVG 1.1//EN" "http://www.w3.org/Graphics/SVG/1.1/DTD/svg11.dtd">
<svg width="100%" height="100%" viewBox="0 0 287 321" version="1.1" xmlns="http://www.w3.org/2000/svg" xmlns:xlink="http://www.w3.org/1999/xlink" xml:space="preserve" xmlns:serif="http://www.serif.com/" style="fill-rule:evenodd;clip-rule:evenodd;stroke-linecap:round;stroke-linejoin:round;stroke-miterlimit:1.5;">
    <g transform="matrix(1,0,0,1,-256.633,-197.199)">
        <path d="M363.414,379.333C333.208,365.532 312.199,335.049 312.199,299.699C312.199,251.407 351.407,212.199 399.699,212.199C447.992,212.199 487.199,251.407 487.199,299.699C487.199,334.958 466.3,365.373 436.22,379.225C489.455,394.874 528.367,444.13 528.367,502.402L271.633,502.402C271.633,444.264 310.365,395.101 363.414,379.333Z" style="fill:none;stroke:black;stroke-width:25px;"/>
        <path d="M363.414,379.333C333.208,365.532 312.199,335.049 312.199,299.699C312.199,251.407 351.407,212.199 399.699,212.199C447.992,212.199 487.199,251.407 487.199,299.699C487.199,334.958 466.3,365.373 436.22,379.225C489.455,394.874 528.367,444.13 528.367,502.402L271.633,502.402C271.633,444.264 310.365,395.101 363.414,379.333Z" style="fill:rgb(87,166,0);fill-opacity:0;"/>
    </g>
</svg>
